<svg width="128" height="128" xmlns="http://www.w3.org/2000/svg" xmlns:xlink="http://www.w3.org/1999/xlink" xml:space="preserve" overflow="hidden"><g transform="translate(-354 -402)"><path d="M455.333 430.667 455.333 478.667 380.667 478.667 380.667 430.667 455.333 430.667ZM466 481.333 463.333 481.333 463.333 428C463.333 427.6 463.2 427.067 463.2 426.667L466 426.667C467.467 426.667 468.667 425.467 468.667 424 468.667 422.533 467.467 421.333 466 421.333L420.667 421.333 420.667 418.667C420.667 417.2 419.467 416 418 416 416.533 416 415.333 417.2 415.333 418.667L415.333 421.333 370 421.333C368.533 421.333 367.333 422.533 367.333 424 367.333 425.467 368.533 426.667 370 426.667L372.8 426.667C372.667 427.067 372.667 427.6 372.667 428L372.667 481.333 370 481.333C368.533 481.333 367.333 482.533 367.333 484 367.333 485.467 368.533 486.667 370 486.667L410.667 486.667 390.133 507.2C389.067 508.267 389.067 510 390.133 510.933 391.2 512 392.933 512 393.867 510.933L415.2 489.6 415.2 513.333C415.2 514.8 416.4 516 417.867 516 419.333 516 420.533 514.8 420.533 513.333L420.533 489.6 441.867 510.933C442.933 512 444.533 512 445.6 510.933 446.667 509.867 446.667 508.267 445.6 507.2L425.333 486.667 466 486.667C467.467 486.667 468.667 485.467 468.667 484 468.667 482.533 467.467 481.333 466 481.333Z" fill="#156082"/></g></svg>